# xmcd
#
# Track frame offsets: 
#        150
#        19349
#        34329
#        44525
#        63345
#        92619
#        104413
#        118286
#        134518
#        150236
#        163913
#        177592
#        191815
#        224345
#        240695
#        256073
#        269342
#        288389
#        302379
#        318593
#
# Disc length: 4411 seconds
#
# Revision: 0
# Processed by: cddbd v1.5.1PL0 Copyright (c) Steve Scherf et al.
# Submitted via: ExactAudioCopy v0.95a5
#
DISCID=2b113914
DTITLE=Various Artist - Maraiachi Only
DYEAR=1998
DGENRE=Latin
TTITLE0=Guadalajara
TTITLE1=El despreciado
TTITLE2=El rey
TTITLE3=Cucurrucucu paloma
TTITLE4=Popurri los tríos (Sin ti, Solamente una vez, Sabor a mí, Quiz
TTITLE4=ás quizás)
TTITLE5=El jarabe tapatio
TTITLE6=Cariño nuevo
TTITLE7=Cielito lindo
TTITLE8=Paloma negra
TTITLE9=Son de la negra
TTITLE10=Las Isabeles
TTITLE11=México lindo y querido
TTITLE12=Popurrí volver (No volveré, Juré que no volverá, Y volveré, V
TTITLE12=olver volver)
TTITLE13=El mariachi loco
TTITLE14=El cuatro
TTITLE15=Las mañanitas
TTITLE16=La revancha
TTITLE17=Ella
TTITLE18=Mi jalisco
TTITLE19=De qué manera te olvido
EXTD=
EXTT0=
EXTT1=
EXTT2=
EXTT3=
EXTT4=
EXTT5=
EXTT6=
EXTT7=
EXTT8=
EXTT9=
EXTT10=
EXTT11=
EXTT12=
EXTT13=
EXTT14=
EXTT15=
EXTT16=
EXTT17=
EXTT18=
EXTT19=
PLAYORDER=
